<?xml version="1.0" encoding="UTF-8" standalone="no"?> <svg xmlns="http://www.w3.org/2000/svg" xmlns:xlink="http://www.w3.org/1999/xlink" xmlns:serif="http://www.serif.com/" width="100%" height="100%" viewBox="0 0 239 175" version="1.1" xml:space="preserve" style="fill-rule:evenodd;clip-rule:evenodd;stroke-linejoin:round;stroke-miterlimit:2;"> <g transform="matrix(1,0,0,1,-1279.63,-710.673)"> <g id="Best-Offer" serif:id="Best Offer" transform="matrix(1.06176,0,0,1.06176,1209.9,283.839)"> <g transform="matrix(1,0,0,1,-61.673,319.22)"> <path d="M127.345,153.073L155.738,188.278L163.109,153.073L127.345,153.073Z" style="fill:rgb(43,157,192);fill-rule:nonzero;"></path> </g> <g transform="matrix(1,0,0,1,-61.673,319.22)"> <path d="M335.622,220.916L148.904,220.916L165.283,142.689L352.001,142.689L335.622,220.916Z" style="fill:rgb(39,39,39);fill-rule:nonzero;"></path> </g> <g transform="matrix(1,0,0,1,-61.673,319.22)"> <path d="M335.622,220.916L305.868,246.772L311.6,220.916L335.622,220.916Z" style="fill:rgb(43,43,43);fill-rule:nonzero;"></path> </g> <g transform="matrix(1,0,0,1,-61.673,319.22)"> <path d="M329.722,226.043L310.464,226.043L311.6,220.916L335.622,220.916L329.722,226.043Z" style="fill:rgb(34,23,39);fill-rule:nonzero;"></path> </g> <g transform="matrix(1,0,0,1,-61.673,319.22)"> <path d="M132.021,158.872L127.345,153.073L132.022,158.872M162.655,155.243L163.109,153.073L127.345,153.073L163.573,150.86L162.659,155.222L162.655,155.243Z" style="fill:rgb(255,189,23);fill-rule:nonzero;"></path> </g> <g transform="matrix(1,0,0,1,-61.673,319.22)"> <path d="M161.866,158.872L132.021,158.872L127.345,153.073L163.109,153.073L162.655,155.243L161.866,158.872Z" style="fill-rule:nonzero;"></path> </g> <g transform="matrix(1,0,0,1,-61.673,319.22)"> <path d="M162.659,155.222L163.573,150.86L163.608,150.857L162.659,155.222Z" style="fill:rgb(33,24,3);fill-rule:nonzero;"></path> </g> <g transform="matrix(1,0,0,1,-61.673,319.22)"> <path d="M161.895,158.872L162.655,155.243L162.659,155.222L161.895,158.872Z" style="fill:rgb(202,137,232);fill-rule:nonzero;"></path> </g> <g transform="matrix(1,0,0,1,-61.673,319.22)"> <path d="M161.895,158.872L161.866,158.872L162.655,155.243L161.895,158.872Z" style="fill:rgb(202,103,12);fill-rule:nonzero;"></path> </g> <g transform="matrix(1,0,0,1,-61.673,319.22)"> <path d="M299.771,158.872L161.783,158.872L162.58,155.243L163.608,150.857L297.284,142.689L303.411,142.689L299.771,158.872Z" style="fill-rule:nonzero;"></path> </g> <g transform="matrix(1,0,0,1,-61.673,319.22)"> <path d="M295.11,153.073L127.345,153.073L142.061,82.788L309.826,82.788L295.11,153.073Z" style="fill:rgb(43,157,192);fill-rule:nonzero;"></path> </g> <g transform="matrix(1,0,0,1,52.388,12.1671)"> <text x="35.48px" y="436.827px" style="font-family:'Arial-BoldItalicMT', 'Arial', sans-serif;font-weight:700;font-style:italic;font-size:30.139px;fill:white;">INSURED</text> </g> <g transform="matrix(1,0,0,1,70.4917,3.07343)"> <text x="39.994px" y="514.801px" style="font-family:'Arial-BoldItalicMT', 'Arial', sans-serif;font-weight:700;font-style:italic;font-size:30.139px;fill:white;">LICENSED</text> </g> </g> </g> </svg> 