<?xml version="1.0" encoding="UTF-8" standalone="no"?> <svg xmlns="http://www.w3.org/2000/svg" xmlns:xlink="http://www.w3.org/1999/xlink" xmlns:serif="http://www.serif.com/" width="100%" height="100%" viewBox="0 0 205 97" version="1.1" xml:space="preserve" style="fill-rule:evenodd;clip-rule:evenodd;stroke-linejoin:round;stroke-miterlimit:2;"> <g transform="matrix(1,0,0,1,-1599.14,-1036.6)"> <g id="Single" transform="matrix(0.927017,0,0,0.927017,418.123,622.814)"> <g transform="matrix(0.81941,0,0,0.81941,216.217,87.4057)"> <g transform="matrix(1,0,0,1,145.529,319.22)"> <path d="M1184.38,203.385L1240.99,245.729L1251.38,203.385L1184.38,203.385Z" style="fill:rgb(39,39,39);fill-rule:nonzero;"></path> </g> <g transform="matrix(1,0,0,1,145.529,319.22)"> <path d="M1249.81,209.759L1249.81,209.759Z" style="fill:rgb(202,137,232);fill-rule:nonzero;"></path> </g> <g transform="matrix(1,0,0,1,145.529,319.22)"> <path d="M1249.81,209.759L1193.53,209.759L1186.96,205.18L1250.94,205.18L1249.81,209.759Z" style="fill:rgb(26,18,30);fill-rule:nonzero;"></path> </g> <g transform="matrix(1,0,0,1,145.529,319.22)"> <path d="M1395.63,205.18L1145.38,205.18L1162.38,118.852L1414.53,118.852L1395.63,205.18Z" style="fill:rgb(39,39,39);fill-rule:nonzero;"></path> </g> <g transform="matrix(1,0,0,1,145.529,319.22)"> <path d="M1409.39,142.33L1414.53,118.852L1414.61,118.852L1409.39,142.33Z" style="fill:rgb(202,137,232);fill-rule:nonzero;"></path> </g> </g> <g transform="matrix(0.553388,0,0,0.553388,660.934,206.299)"> <text x="1198.72px" y="490.636px" style="font-family:'Arial-Black', 'Arial', sans-serif;font-weight:900;font-size:45px;fill:white;">SPECIAL</text> <text x="1155.02px" y="535.636px" style="font-family:'Arial-Black', 'Arial', sans-serif;font-weight:900;font-size:45px;fill:white;">EQUIPMENT</text> </g> </g> </g> </svg> 