<?xml version="1.0" encoding="UTF-8" standalone="no"?> <svg xmlns="http://www.w3.org/2000/svg" xmlns:xlink="http://www.w3.org/1999/xlink" xmlns:serif="http://www.serif.com/" width="100%" height="100%" viewBox="0 0 239 145" version="1.1" xml:space="preserve" style="fill-rule:evenodd;clip-rule:evenodd;stroke-linejoin:round;stroke-miterlimit:2;"><g><path d="M227.523,105.763l10.53,-57.983l-227.523,0l-10.53,57.983l227.523,0Z" style="fill:#2b9dc0;fill-rule:nonzero;"></path><g transform="matrix(1,0,0,1,-4,-8)"><g transform="matrix(18,0,0,18,53.7243,72.0394)"><path d="M0.073,0l0,-0.716l0.304,0c0.077,0 0.133,0.007 0.167,0.019c0.035,0.013 0.063,0.036 0.083,0.069c0.021,0.033 0.032,0.071 0.032,0.113c0,0.054 -0.016,0.098 -0.048,0.133c-0.031,0.035 -0.078,0.057 -0.141,0.066c0.031,0.018 0.057,0.038 0.077,0.06c0.02,0.022 0.048,0.061 0.082,0.116l0.088,0.14l-0.173,0l-0.105,-0.156c-0.037,-0.055 -0.062,-0.091 -0.076,-0.105c-0.013,-0.014 -0.028,-0.024 -0.043,-0.03c-0.015,-0.005 -0.04,-0.008 -0.073,-0.008l-0.029,0l0,0.299l-0.145,0Zm0.145,-0.413l0.107,0c0.069,0 0.112,-0.003 0.13,-0.009c0.017,-0.006 0.03,-0.016 0.04,-0.03c0.01,-0.014 0.015,-0.032 0.015,-0.054c0,-0.024 -0.007,-0.043 -0.02,-0.058c-0.012,-0.015 -0.031,-0.024 -0.054,-0.028c-0.012,-0.002 -0.047,-0.003 -0.105,-0.003l-0.113,0l0,0.182Z" style="fill:#fff;fill-rule:nonzero;"></path></g><g transform="matrix(18,0,0,18,66.7233,72.0394)"><path d="M0.073,0l0,-0.716l0.531,0l0,0.121l-0.387,0l0,0.159l0.36,0l0,0.121l-0.36,0l0,0.194l0.4,0l0,0.121l-0.544,0Z" style="fill:#fff;fill-rule:nonzero;"></path></g><g transform="matrix(18,0,0,18,78.7291,72.0394)"><path d="M0.074,0l0,-0.716l0.49,0l0,0.121l-0.346,0l0,0.17l0.299,0l0,0.121l-0.299,0l0,0.304l-0.144,0Z" style="fill:#fff;fill-rule:nonzero;"></path></g><g transform="matrix(18,0,0,18,89.7243,72.0394)"><path d="M0.073,0l0,-0.716l0.531,0l0,0.121l-0.387,0l0,0.159l0.36,0l0,0.121l-0.36,0l0,0.194l0.4,0l0,0.121l-0.544,0Z" style="fill:#fff;fill-rule:nonzero;"></path></g><g transform="matrix(18,0,0,18,101.73,72.0394)"><path d="M0.073,0l0,-0.716l0.304,0c0.077,0 0.133,0.007 0.167,0.019c0.035,0.013 0.063,0.036 0.083,0.069c0.021,0.033 0.032,0.071 0.032,0.113c0,0.054 -0.016,0.098 -0.048,0.133c-0.031,0.035 -0.078,0.057 -0.141,0.066c0.031,0.018 0.057,0.038 0.077,0.06c0.02,0.022 0.048,0.061 0.082,0.116l0.088,0.14l-0.173,0l-0.105,-0.156c-0.037,-0.055 -0.062,-0.091 -0.076,-0.105c-0.013,-0.014 -0.028,-0.024 -0.043,-0.03c-0.015,-0.005 -0.04,-0.008 -0.073,-0.008l-0.029,0l0,0.299l-0.145,0Zm0.145,-0.413l0.107,0c0.069,0 0.112,-0.003 0.13,-0.009c0.017,-0.006 0.03,-0.016 0.04,-0.03c0.01,-0.014 0.015,-0.032 0.015,-0.054c0,-0.024 -0.007,-0.043 -0.02,-0.058c-0.012,-0.015 -0.031,-0.024 -0.054,-0.028c-0.012,-0.002 -0.047,-0.003 -0.105,-0.003l-0.113,0l0,0.182Z" style="fill:#fff;fill-rule:nonzero;"></path></g><g transform="matrix(18,0,0,18,114.729,72.0394)"><path d="M0.073,0l0,-0.716l0.304,0c0.077,0 0.133,0.007 0.167,0.019c0.035,0.013 0.063,0.036 0.083,0.069c0.021,0.033 0.032,0.071 0.032,0.113c0,0.054 -0.016,0.098 -0.048,0.133c-0.031,0.035 -0.078,0.057 -0.141,0.066c0.031,0.018 0.057,0.038 0.077,0.06c0.02,0.022 0.048,0.061 0.082,0.116l0.088,0.14l-0.173,0l-0.105,-0.156c-0.037,-0.055 -0.062,-0.091 -0.076,-0.105c-0.013,-0.014 -0.028,-0.024 -0.043,-0.03c-0.015,-0.005 -0.04,-0.008 -0.073,-0.008l-0.029,0l0,0.299l-0.145,0Zm0.145,-0.413l0.107,0c0.069,0 0.112,-0.003 0.13,-0.009c0.017,-0.006 0.03,-0.016 0.04,-0.03c0.01,-0.014 0.015,-0.032 0.015,-0.054c0,-0.024 -0.007,-0.043 -0.02,-0.058c-0.012,-0.015 -0.031,-0.024 -0.054,-0.028c-0.012,-0.002 -0.047,-0.003 -0.105,-0.003l-0.113,0l0,0.182Z" style="fill:#fff;fill-rule:nonzero;"></path></g><g transform="matrix(18,0,0,18,127.728,72.0394)"><path d="M0.718,0l-0.157,0l-0.062,-0.163l-0.287,0l-0.059,0.163l-0.153,0l0.279,-0.716l0.153,0l0.286,0.716Zm-0.266,-0.283l-0.098,-0.266l-0.097,0.266l0.195,0Z" style="fill:#fff;fill-rule:nonzero;"></path></g><g transform="matrix(18,0,0,18,140.727,72.0394)"><path d="M0.077,0l0,-0.71l0.144,0l0,0.589l0.36,0l0,0.121l-0.504,0Z" style="fill:#fff;fill-rule:nonzero;"></path></g><g transform="matrix(18,0,0,18,156.398,72.0394)"><path d="M0.174,0l-0.171,-0.716l0.148,0l0.108,0.492l0.131,-0.492l0.172,0l0.125,0.5l0.11,-0.5l0.146,0l-0.174,0.716l-0.153,0l-0.143,-0.535l-0.142,0.535l-0.157,0Z" style="fill:#fff;fill-rule:nonzero;"></path></g><g transform="matrix(18,0,0,18,173.387,72.0394)"><rect x="0.068" y="-0.716" width="0.145" height="0.716" style="fill:#fff;fill-rule:nonzero;"></rect></g><g transform="matrix(18,0,0,18,178.388,72.0394)"><path d="M0.077,0l0,-0.71l0.144,0l0,0.589l0.36,0l0,0.121l-0.504,0Z" style="fill:#fff;fill-rule:nonzero;"></path></g><g transform="matrix(18,0,0,18,189.383,72.0394)"><path d="M0.077,0l0,-0.71l0.144,0l0,0.589l0.36,0l0,0.121l-0.504,0Z" style="fill:#fff;fill-rule:nonzero;"></path></g><g transform="matrix(18,0,0,18,71.2145,90.6283)"><path d="M0.406,-0.263l0,-0.121l0.311,0l0,0.285c-0.03,0.03 -0.074,0.055 -0.131,0.078c-0.058,0.022 -0.116,0.033 -0.175,0.033c-0.075,0 -0.14,-0.015 -0.196,-0.047c-0.055,-0.031 -0.097,-0.076 -0.125,-0.135c-0.028,-0.058 -0.042,-0.122 -0.042,-0.19c0,-0.075 0.015,-0.141 0.047,-0.199c0.031,-0.058 0.077,-0.102 0.137,-0.133c0.046,-0.024 0.103,-0.036 0.171,-0.036c0.089,0 0.159,0.019 0.209,0.056c0.05,0.037 0.082,0.089 0.096,0.154l-0.144,0.027c-0.01,-0.035 -0.029,-0.063 -0.056,-0.083c-0.028,-0.02 -0.063,-0.03 -0.105,-0.03c-0.063,0 -0.113,0.02 -0.15,0.06c-0.038,0.04 -0.056,0.099 -0.056,0.178c0,0.085 0.019,0.148 0.056,0.191c0.038,0.042 0.088,0.064 0.149,0.064c0.03,0 0.06,-0.006 0.091,-0.018c0.03,-0.012 0.056,-0.026 0.078,-0.043l0,-0.091l-0.165,0Z" style="fill:#fff;fill-rule:nonzero;"></path></g><g transform="matrix(18,0,0,18,85.2155,90.6283)"><path d="M0.073,0l0,-0.716l0.531,0l0,0.121l-0.387,0l0,0.159l0.36,0l0,0.121l-0.36,0l0,0.194l0.4,0l0,0.121l-0.544,0Z" style="fill:#fff;fill-rule:nonzero;"></path></g><g transform="matrix(18,0,0,18,97.2213,90.6283)"><path d="M0.234,0l0,-0.595l-0.213,0l0,-0.121l0.569,0l0,0.121l-0.212,0l0,0.595l-0.144,0Z" style="fill:#fff;fill-rule:nonzero;"></path></g><g transform="matrix(18,0,0,18,112.549,90.6283)"><path d="M0.718,0l-0.157,0l-0.062,-0.163l-0.287,0l-0.059,0.163l-0.153,0l0.279,-0.716l0.153,0l0.286,0.716Zm-0.266,-0.283l-0.098,-0.266l-0.097,0.266l0.195,0Z" style="fill:#fff;fill-rule:nonzero;"></path></g><g transform="matrix(18,0,0,18,129.881,90.6283)"><path d="M0.074,0l0,-0.716l0.49,0l0,0.121l-0.346,0l0,0.17l0.299,0l0,0.121l-0.299,0l0,0.304l-0.144,0Z" style="fill:#fff;fill-rule:nonzero;"></path></g><g transform="matrix(18,0,0,18,140.877,90.6283)"><path d="M0.073,0l0,-0.716l0.304,0c0.077,0 0.133,0.007 0.167,0.019c0.035,0.013 0.063,0.036 0.083,0.069c0.021,0.033 0.032,0.071 0.032,0.113c0,0.054 -0.016,0.098 -0.048,0.133c-0.031,0.035 -0.078,0.057 -0.141,0.066c0.031,0.018 0.057,0.038 0.077,0.06c0.02,0.022 0.048,0.061 0.082,0.116l0.088,0.14l-0.173,0l-0.105,-0.156c-0.037,-0.055 -0.062,-0.091 -0.076,-0.105c-0.013,-0.014 -0.028,-0.024 -0.043,-0.03c-0.015,-0.005 -0.04,-0.008 -0.073,-0.008l-0.029,0l0,0.299l-0.145,0Zm0.145,-0.413l0.107,0c0.069,0 0.112,-0.003 0.13,-0.009c0.017,-0.006 0.03,-0.016 0.04,-0.03c0.01,-0.014 0.015,-0.032 0.015,-0.054c0,-0.024 -0.007,-0.043 -0.02,-0.058c-0.012,-0.015 -0.031,-0.024 -0.054,-0.028c-0.012,-0.002 -0.047,-0.003 -0.105,-0.003l-0.113,0l0,0.182Z" style="fill:#fff;fill-rule:nonzero;"></path></g><g transform="matrix(18,0,0,18,153.876,90.6283)"><path d="M0.073,0l0,-0.716l0.531,0l0,0.121l-0.387,0l0,0.159l0.36,0l0,0.121l-0.36,0l0,0.194l0.4,0l0,0.121l-0.544,0Z" style="fill:#fff;fill-rule:nonzero;"></path></g><g transform="matrix(18,0,0,18,165.881,90.6283)"><path d="M0.073,0l0,-0.716l0.531,0l0,0.121l-0.387,0l0,0.159l0.36,0l0,0.121l-0.36,0l0,0.194l0.4,0l0,0.121l-0.544,0Z" style="fill:#fff;fill-rule:nonzero;"></path></g><g transform="matrix(18,0,0,18,63.5372,109.217)"><path d="M0.072,-0.716l0.264,0c0.06,0 0.105,0.005 0.137,0.014c0.042,0.012 0.078,0.034 0.108,0.066c0.03,0.031 0.052,0.07 0.068,0.116c0.016,0.045 0.023,0.102 0.023,0.169c0,0.059 -0.007,0.11 -0.022,0.152c-0.018,0.052 -0.043,0.095 -0.076,0.127c-0.025,0.024 -0.059,0.043 -0.102,0.057c-0.032,0.01 -0.074,0.015 -0.128,0.015l-0.272,0l0,-0.716Zm0.145,0.121l0,0.474l0.108,0c0.04,0 0.069,-0.002 0.087,-0.006c0.024,-0.006 0.043,-0.016 0.058,-0.03c0.016,-0.014 0.029,-0.037 0.038,-0.069c0.01,-0.032 0.015,-0.076 0.015,-0.131c0,-0.056 -0.005,-0.098 -0.015,-0.128c-0.009,-0.029 -0.023,-0.053 -0.041,-0.069c-0.017,-0.017 -0.04,-0.028 -0.067,-0.034c-0.02,-0.004 -0.059,-0.007 -0.118,-0.007l-0.065,0Z" style="fill:#fff;fill-rule:nonzero;"></path></g><g transform="matrix(18,0,0,18,76.5363,109.217)"><path d="M0.718,0l-0.157,0l-0.062,-0.163l-0.287,0l-0.059,0.163l-0.153,0l0.279,-0.716l0.153,0l0.286,0.716Zm-0.266,-0.283l-0.098,-0.266l-0.097,0.266l0.195,0Z" style="fill:#fff;fill-rule:nonzero;"></path></g><g transform="matrix(18,0,0,18,87.8829,109.217)"><path d="M0.261,0l0,-0.301l-0.262,-0.415l0.169,0l0.168,0.283l0.165,-0.283l0.167,0l-0.263,0.416l0,0.3l-0.144,0Z" style="fill:#fff;fill-rule:nonzero;"></path></g><g transform="matrix(18,0,0,18,104.565,109.217)"><path d="M0.043,-0.354c0,-0.072 0.011,-0.134 0.033,-0.183c0.016,-0.037 0.039,-0.069 0.067,-0.098c0.028,-0.029 0.059,-0.051 0.092,-0.065c0.045,-0.019 0.096,-0.028 0.155,-0.028c0.105,0 0.19,0.033 0.253,0.098c0.063,0.066 0.095,0.157 0.095,0.273c0,0.116 -0.032,0.206 -0.094,0.271c-0.063,0.066 -0.147,0.098 -0.252,0.098c-0.107,0 -0.191,-0.032 -0.254,-0.097c-0.063,-0.065 -0.095,-0.155 -0.095,-0.269Zm0.149,-0.004c0,0.081 0.019,0.142 0.057,0.184c0.037,0.042 0.084,0.063 0.142,0.063c0.058,0 0.105,-0.021 0.142,-0.063c0.037,-0.041 0.055,-0.103 0.055,-0.186c0,-0.082 -0.018,-0.144 -0.054,-0.184c-0.036,-0.04 -0.083,-0.06 -0.143,-0.06c-0.059,0 -0.107,0.02 -0.144,0.061c-0.036,0.041 -0.055,0.102 -0.055,0.185Z" style="fill:#fff;fill-rule:nonzero;"></path></g><g transform="matrix(18,0,0,18,118.566,109.217)"><path d="M0.074,0l0,-0.716l0.49,0l0,0.121l-0.346,0l0,0.17l0.299,0l0,0.121l-0.299,0l0,0.304l-0.144,0Z" style="fill:#fff;fill-rule:nonzero;"></path></g><g transform="matrix(18,0,0,18,134.562,109.217)"><path d="M0.531,-0.263l0.14,0.044c-0.022,0.078 -0.057,0.136 -0.107,0.174c-0.05,0.038 -0.114,0.057 -0.19,0.057c-0.096,0 -0.174,-0.032 -0.235,-0.097c-0.061,-0.065 -0.092,-0.154 -0.092,-0.267c0,-0.119 0.031,-0.211 0.093,-0.277c0.061,-0.066 0.142,-0.099 0.242,-0.099c0.088,0 0.159,0.026 0.214,0.078c0.032,0.03 0.057,0.074 0.073,0.131l-0.143,0.035c-0.009,-0.037 -0.026,-0.067 -0.053,-0.088c-0.027,-0.022 -0.06,-0.032 -0.098,-0.032c-0.053,0 -0.096,0.019 -0.129,0.057c-0.033,0.038 -0.05,0.099 -0.05,0.185c0,0.09 0.017,0.155 0.049,0.193c0.033,0.038 0.075,0.058 0.127,0.058c0.038,0 0.072,-0.013 0.099,-0.037c0.028,-0.024 0.048,-0.063 0.06,-0.115Z" style="fill:#fff;fill-rule:nonzero;"></path></g><g transform="matrix(18,0,0,18,147.561,109.217)"><path d="M0.718,0l-0.157,0l-0.062,-0.163l-0.287,0l-0.059,0.163l-0.153,0l0.279,-0.716l0.153,0l0.286,0.716Zm-0.266,-0.283l-0.098,-0.266l-0.097,0.266l0.195,0Z" style="fill:#fff;fill-rule:nonzero;"></path></g><g transform="matrix(18,0,0,18,160.56,109.217)"><path d="M0.073,0l0,-0.716l0.304,0c0.077,0 0.133,0.007 0.167,0.019c0.035,0.013 0.063,0.036 0.083,0.069c0.021,0.033 0.032,0.071 0.032,0.113c0,0.054 -0.016,0.098 -0.048,0.133c-0.031,0.035 -0.078,0.057 -0.141,0.066c0.031,0.018 0.057,0.038 0.077,0.06c0.02,0.022 0.048,0.061 0.082,0.116l0.088,0.14l-0.173,0l-0.105,-0.156c-0.037,-0.055 -0.062,-0.091 -0.076,-0.105c-0.013,-0.014 -0.028,-0.024 -0.043,-0.03c-0.015,-0.005 -0.04,-0.008 -0.073,-0.008l-0.029,0l0,0.299l-0.145,0Zm0.145,-0.413l0.107,0c0.069,0 0.112,-0.003 0.13,-0.009c0.017,-0.006 0.03,-0.016 0.04,-0.03c0.01,-0.014 0.015,-0.032 0.015,-0.054c0,-0.024 -0.007,-0.043 -0.02,-0.058c-0.012,-0.015 -0.031,-0.024 -0.054,-0.028c-0.012,-0.002 -0.047,-0.003 -0.105,-0.003l-0.113,0l0,0.182Z" style="fill:#fff;fill-rule:nonzero;"></path></g><g transform="matrix(18,0,0,18,173.559,109.217)"><path d="M0.073,0l0,-0.716l0.531,0l0,0.121l-0.387,0l0,0.159l0.36,0l0,0.121l-0.36,0l0,0.194l0.4,0l0,0.121l-0.544,0Z" style="fill:#fff;fill-rule:nonzero;"></path></g></g><path d="M36.014,105.763l-36.014,0l28.847,38.392l7.167,-38.392Z" style="fill:#2b9dc0;fill-rule:nonzero;"></path><path d="M35.223,110l-32.039,0l-3.184,-4.237l36.014,0l-0.791,4.237Z" style="fill-rule:nonzero;"></path><path d="M191.077,47.781l16.323,-47.781l-180.476,0l-16.324,47.781l180.477,0Z" style="fill:#272727;fill-rule:nonzero;"></path><g transform="matrix(1,0,0,1,-8,8)"><g transform="matrix(20,0,0,20,83.5633,12.5286)"><path d="M0.073,0l0,-0.716l0.531,0l0,0.121l-0.387,0l0,0.159l0.36,0l0,0.121l-0.36,0l0,0.194l0.4,0l0,0.121l-0.544,0Z" style="fill:#fff;fill-rule:nonzero;"></path></g><g transform="matrix(20,0,0,20,96.9032,12.5286)"><path d="M0.255,0l-0.255,-0.716l0.156,0l0.181,0.53l0.176,-0.53l0.153,0l-0.256,0.716l-0.155,0Z" style="fill:#fff;fill-rule:nonzero;"></path></g><g transform="matrix(20,0,0,20,110.243,12.5286)"><path d="M0.073,0l0,-0.716l0.531,0l0,0.121l-0.387,0l0,0.159l0.36,0l0,0.121l-0.36,0l0,0.194l0.4,0l0,0.121l-0.544,0Z" style="fill:#fff;fill-rule:nonzero;"></path></g><g transform="matrix(20,0,0,20,123.583,12.5286)"><path d="M0.073,0l0,-0.716l0.304,0c0.077,0 0.133,0.007 0.167,0.019c0.035,0.013 0.063,0.036 0.083,0.069c0.021,0.033 0.032,0.071 0.032,0.113c0,0.054 -0.016,0.098 -0.048,0.133c-0.031,0.035 -0.078,0.057 -0.141,0.066c0.031,0.018 0.057,0.038 0.077,0.06c0.02,0.022 0.048,0.061 0.082,0.116l0.088,0.14l-0.173,0l-0.105,-0.156c-0.037,-0.055 -0.062,-0.091 -0.076,-0.105c-0.013,-0.014 -0.028,-0.024 -0.043,-0.03c-0.015,-0.005 -0.04,-0.008 -0.073,-0.008l-0.029,0l0,0.299l-0.145,0Zm0.145,-0.413l0.107,0c0.069,0 0.112,-0.003 0.13,-0.009c0.017,-0.006 0.03,-0.016 0.04,-0.03c0.01,-0.014 0.015,-0.032 0.015,-0.054c0,-0.024 -0.007,-0.043 -0.02,-0.058c-0.012,-0.015 -0.031,-0.024 -0.054,-0.028c-0.012,-0.002 -0.047,-0.003 -0.105,-0.003l-0.113,0l0,0.182Z" style="fill:#fff;fill-rule:nonzero;"></path></g><g transform="matrix(20,0,0,20,137.284,12.5286)"><path d="M0.261,0l0,-0.301l-0.262,-0.415l0.169,0l0.168,0.283l0.165,-0.283l0.167,0l-0.263,0.416l0,0.3l-0.144,0Z" style="fill:#fff;fill-rule:nonzero;"></path></g><g transform="matrix(20,0,0,20,49.1298,33.1829)"><path d="M0.036,-0.233l0.141,-0.014c0.008,0.048 0.025,0.082 0.051,0.104c0.026,0.023 0.061,0.034 0.105,0.034c0.047,0 0.082,-0.01 0.105,-0.03c0.024,-0.02 0.036,-0.043 0.036,-0.069c0,-0.017 -0.005,-0.031 -0.015,-0.043c-0.01,-0.012 -0.028,-0.022 -0.052,-0.031c-0.017,-0.006 -0.056,-0.017 -0.116,-0.031c-0.077,-0.02 -0.132,-0.043 -0.163,-0.071c-0.044,-0.04 -0.066,-0.088 -0.066,-0.144c0,-0.037 0.01,-0.071 0.031,-0.103c0.021,-0.031 0.05,-0.056 0.089,-0.072c0.039,-0.017 0.086,-0.025 0.141,-0.025c0.09,0 0.158,0.02 0.203,0.059c0.046,0.039 0.069,0.092 0.072,0.158l-0.145,0.006c-0.006,-0.037 -0.019,-0.063 -0.04,-0.079c-0.02,-0.016 -0.051,-0.024 -0.091,-0.024c-0.042,0 -0.075,0.008 -0.099,0.025c-0.015,0.012 -0.023,0.026 -0.023,0.045c0,0.017 0.007,0.031 0.022,0.043c0.018,0.016 0.062,0.032 0.132,0.048c0.071,0.017 0.123,0.034 0.156,0.052c0.034,0.017 0.061,0.042 0.08,0.072c0.019,0.031 0.028,0.069 0.028,0.115c0,0.041 -0.011,0.079 -0.034,0.115c-0.023,0.036 -0.055,0.062 -0.097,0.08c-0.041,0.017 -0.093,0.026 -0.155,0.026c-0.091,0 -0.16,-0.021 -0.209,-0.063c-0.048,-0.042 -0.077,-0.103 -0.087,-0.183Z" style="fill:#fff;fill-rule:nonzero;"></path></g><g transform="matrix(20,0,0,20,62.4696,33.1829)"><path d="M0.072,-0.716l0.144,0l0,0.388c0,0.061 0.002,0.101 0.006,0.12c0.006,0.029 0.021,0.052 0.044,0.07c0.023,0.018 0.055,0.027 0.095,0.027c0.041,0 0.072,-0.009 0.093,-0.025c0.021,-0.017 0.033,-0.038 0.038,-0.062c0.004,-0.025 0.006,-0.065 0.006,-0.122l0,-0.396l0.145,0l0,0.376c0,0.086 -0.004,0.147 -0.012,0.182c-0.008,0.036 -0.022,0.066 -0.043,0.09c-0.021,0.025 -0.049,0.044 -0.085,0.058c-0.035,0.015 -0.081,0.022 -0.137,0.022c-0.069,0 -0.12,-0.008 -0.156,-0.023c-0.035,-0.016 -0.063,-0.037 -0.084,-0.062c-0.02,-0.025 -0.034,-0.052 -0.04,-0.079c-0.01,-0.041 -0.014,-0.102 -0.014,-0.182l0,-0.382Z" style="fill:#fff;fill-rule:nonzero;"></path></g><g transform="matrix(20,0,0,20,76.913,33.1829)"><path d="M0.531,-0.263l0.14,0.044c-0.022,0.078 -0.057,0.136 -0.107,0.174c-0.05,0.038 -0.114,0.057 -0.19,0.057c-0.096,0 -0.174,-0.032 -0.235,-0.097c-0.061,-0.065 -0.092,-0.154 -0.092,-0.267c0,-0.119 0.031,-0.211 0.093,-0.277c0.061,-0.066 0.142,-0.099 0.242,-0.099c0.088,0 0.159,0.026 0.214,0.078c0.032,0.03 0.057,0.074 0.073,0.131l-0.143,0.035c-0.009,-0.037 -0.026,-0.067 -0.053,-0.088c-0.027,-0.022 -0.06,-0.032 -0.098,-0.032c-0.053,0 -0.096,0.019 -0.129,0.057c-0.033,0.038 -0.05,0.099 -0.05,0.185c0,0.09 0.017,0.155 0.049,0.193c0.033,0.038 0.075,0.058 0.127,0.058c0.038,0 0.072,-0.013 0.099,-0.037c0.028,-0.024 0.048,-0.063 0.06,-0.115Z" style="fill:#fff;fill-rule:nonzero;"></path></g><g transform="matrix(20,0,0,20,91.3563,33.1829)"><path d="M0.531,-0.263l0.14,0.044c-0.022,0.078 -0.057,0.136 -0.107,0.174c-0.05,0.038 -0.114,0.057 -0.19,0.057c-0.096,0 -0.174,-0.032 -0.235,-0.097c-0.061,-0.065 -0.092,-0.154 -0.092,-0.267c0,-0.119 0.031,-0.211 0.093,-0.277c0.061,-0.066 0.142,-0.099 0.242,-0.099c0.088,0 0.159,0.026 0.214,0.078c0.032,0.03 0.057,0.074 0.073,0.131l-0.143,0.035c-0.009,-0.037 -0.026,-0.067 -0.053,-0.088c-0.027,-0.022 -0.06,-0.032 -0.098,-0.032c-0.053,0 -0.096,0.019 -0.129,0.057c-0.033,0.038 -0.05,0.099 -0.05,0.185c0,0.09 0.017,0.155 0.049,0.193c0.033,0.038 0.075,0.058 0.127,0.058c0.038,0 0.072,-0.013 0.099,-0.037c0.028,-0.024 0.048,-0.063 0.06,-0.115Z" style="fill:#fff;fill-rule:nonzero;"></path></g><g transform="matrix(20,0,0,20,105.8,33.1829)"><path d="M0.073,0l0,-0.716l0.531,0l0,0.121l-0.387,0l0,0.159l0.36,0l0,0.121l-0.36,0l0,0.194l0.4,0l0,0.121l-0.544,0Z" style="fill:#fff;fill-rule:nonzero;"></path></g><g transform="matrix(20,0,0,20,119.14,33.1829)"><path d="M0.036,-0.233l0.141,-0.014c0.008,0.048 0.025,0.082 0.051,0.104c0.026,0.023 0.061,0.034 0.105,0.034c0.047,0 0.082,-0.01 0.105,-0.03c0.024,-0.02 0.036,-0.043 0.036,-0.069c0,-0.017 -0.005,-0.031 -0.015,-0.043c-0.01,-0.012 -0.028,-0.022 -0.052,-0.031c-0.017,-0.006 -0.056,-0.017 -0.116,-0.031c-0.077,-0.02 -0.132,-0.043 -0.163,-0.071c-0.044,-0.04 -0.066,-0.088 -0.066,-0.144c0,-0.037 0.01,-0.071 0.031,-0.103c0.021,-0.031 0.05,-0.056 0.089,-0.072c0.039,-0.017 0.086,-0.025 0.141,-0.025c0.09,0 0.158,0.02 0.203,0.059c0.046,0.039 0.069,0.092 0.072,0.158l-0.145,0.006c-0.006,-0.037 -0.019,-0.063 -0.04,-0.079c-0.02,-0.016 -0.051,-0.024 -0.091,-0.024c-0.042,0 -0.075,0.008 -0.099,0.025c-0.015,0.012 -0.023,0.026 -0.023,0.045c0,0.017 0.007,0.031 0.022,0.043c0.018,0.016 0.062,0.032 0.132,0.048c0.071,0.017 0.123,0.034 0.156,0.052c0.034,0.017 0.061,0.042 0.08,0.072c0.019,0.031 0.028,0.069 0.028,0.115c0,0.041 -0.011,0.079 -0.034,0.115c-0.023,0.036 -0.055,0.062 -0.097,0.08c-0.041,0.017 -0.093,0.026 -0.155,0.026c-0.091,0 -0.16,-0.021 -0.209,-0.063c-0.048,-0.042 -0.077,-0.103 -0.087,-0.183Z" style="fill:#fff;fill-rule:nonzero;"></path></g><g transform="matrix(20,0,0,20,132.479,33.1829)"><path d="M0.036,-0.233l0.141,-0.014c0.008,0.048 0.025,0.082 0.051,0.104c0.026,0.023 0.061,0.034 0.105,0.034c0.047,0 0.082,-0.01 0.105,-0.03c0.024,-0.02 0.036,-0.043 0.036,-0.069c0,-0.017 -0.005,-0.031 -0.015,-0.043c-0.01,-0.012 -0.028,-0.022 -0.052,-0.031c-0.017,-0.006 -0.056,-0.017 -0.116,-0.031c-0.077,-0.02 -0.132,-0.043 -0.163,-0.071c-0.044,-0.04 -0.066,-0.088 -0.066,-0.144c0,-0.037 0.01,-0.071 0.031,-0.103c0.021,-0.031 0.05,-0.056 0.089,-0.072c0.039,-0.017 0.086,-0.025 0.141,-0.025c0.09,0 0.158,0.02 0.203,0.059c0.046,0.039 0.069,0.092 0.072,0.158l-0.145,0.006c-0.006,-0.037 -0.019,-0.063 -0.04,-0.079c-0.02,-0.016 -0.051,-0.024 -0.091,-0.024c-0.042,0 -0.075,0.008 -0.099,0.025c-0.015,0.012 -0.023,0.026 -0.023,0.045c0,0.017 0.007,0.031 0.022,0.043c0.018,0.016 0.062,0.032 0.132,0.048c0.071,0.017 0.123,0.034 0.156,0.052c0.034,0.017 0.061,0.042 0.08,0.072c0.019,0.031 0.028,0.069 0.028,0.115c0,0.041 -0.011,0.079 -0.034,0.115c-0.023,0.036 -0.055,0.062 -0.097,0.08c-0.041,0.017 -0.093,0.026 -0.155,0.026c-0.091,0 -0.16,-0.021 -0.209,-0.063c-0.048,-0.042 -0.077,-0.103 -0.087,-0.183Z" style="fill:#fff;fill-rule:nonzero;"></path></g><g transform="matrix(20,0,0,20,145.819,33.1829)"><path d="M0.074,0l0,-0.716l0.49,0l0,0.121l-0.346,0l0,0.17l0.299,0l0,0.121l-0.299,0l0,0.304l-0.144,0Z" style="fill:#fff;fill-rule:nonzero;"></path></g><g transform="matrix(20,0,0,20,158.036,33.1829)"><path d="M0.072,-0.716l0.144,0l0,0.388c0,0.061 0.002,0.101 0.006,0.12c0.006,0.029 0.021,0.052 0.044,0.07c0.023,0.018 0.055,0.027 0.095,0.027c0.041,0 0.072,-0.009 0.093,-0.025c0.021,-0.017 0.033,-0.038 0.038,-0.062c0.004,-0.025 0.006,-0.065 0.006,-0.122l0,-0.396l0.145,0l0,0.376c0,0.086 -0.004,0.147 -0.012,0.182c-0.008,0.036 -0.022,0.066 -0.043,0.09c-0.021,0.025 -0.049,0.044 -0.085,0.058c-0.035,0.015 -0.081,0.022 -0.137,0.022c-0.069,0 -0.12,-0.008 -0.156,-0.023c-0.035,-0.016 -0.063,-0.037 -0.084,-0.062c-0.02,-0.025 -0.034,-0.052 -0.04,-0.079c-0.01,-0.041 -0.014,-0.102 -0.014,-0.182l0,-0.382Z" style="fill:#fff;fill-rule:nonzero;"></path></g><g transform="matrix(20,0,0,20,172.479,33.1829)"><path d="M0.077,0l0,-0.71l0.144,0l0,0.589l0.36,0l0,0.121l-0.504,0Z" style="fill:#fff;fill-rule:nonzero;"></path></g></g></g></svg> 